<?xml version="1.0" encoding="UTF-8"?>
<svg width="200px" height="200px" viewBox="0 0 200 200" version="1.1" xmlns="http://www.w3.org/2000/svg" xmlns:xlink="http://www.w3.org/1999/xlink">
    <title>icon</title>
    <defs>
        <rect id="path-1" x="0" y="0" width="200" height="200"></rect>
    </defs>
    <g id="icon" stroke="none" stroke-width="1" fill="none" fill-rule="evenodd">
        <rect fill="#FFFFFF" x="0" y="0" width="200" height="200"></rect>
        <mask id="mask-2" fill="white">
            <use xlink:href="#path-1"></use>
        </mask>
        <use id="Rectangle" fill="#6BB4B8" xlink:href="#path-1"></use>
        <rect id="Rectangle" fill="#6BB4B8" mask="url(#mask-2)" x="0" y="0" width="200" height="200" rx="30"></rect>
        <polyline id="Path" fill="#60A9AD" fill-rule="nonzero" mask="url(#mask-2)" points="1.42108547e-14 83.43 1 84.03 2 84.64 3 85.26 4 85.91 5 86.56 6 87.23 7 87.91 8 88.61 9 89.31 10 90.02 11 90.75 12 91.48 13 92.23 14 92.98 15 93.73 16 94.5 17 95.27 18 96.04 19 96.82 20 97.6 21 98.38 22 99.16 23 99.95 24 100.73 25 101.52 26 102.3 27 103.08 28 103.86 29 104.63 30 105.4 31 106.17 32 106.93 33 107.68 34 108.42 35 109.16 36 109.88 37 110.6 38 111.3 39 112 40 112.68 41 113.35 42 114.01 43 114.65 44 115.28 45 115.9 46 116.49 47 117.08 48 117.64 49 118.19 50 118.72 51 119.23 52 119.72 53 120.2 54 120.65 55 121.08 56 121.49 57 121.88 58 122.25 59 122.6 60 122.92 61 123.23 62 123.5 63 123.76 64 123.99 65 124.2 66 124.39 67 124.55 68 124.68 69 124.8 70 124.88 71 124.95 72 124.99 73 125 74 124.99 75 124.95 76 124.89 77 124.81 78 124.7 79 124.57 80 124.41 81 124.23 82 124.02 83 123.79 84 123.54 85 123.26 86 122.96 87 122.64 88 122.3 89 121.93 90 121.54 91 121.14 92 120.71 93 120.26 94 119.78 95 119.3 96 118.79 97 118.26 98 117.71 99 117.15 100 116.57 101 115.97 102 115.36 103 114.74 104 114.09 105 113.44 106 112.77 107 112.09 108 111.39 109 110.69 110 109.98 111 109.25 112 108.52 113 107.77 114 107.02 115 106.27 116 105.5 117 104.73 118 103.96 119 103.18 120 102.4 121 101.62 122 100.84 123 100.05 124 99.27 125 98.48 126 97.7 127 96.92 128 96.14 129 95.37 130 94.6 131 93.83 132 93.07 133 92.32 134 91.58 135 90.84 136 90.12 137 89.4 138 88.7 139 88 140 87.32 141 86.65 142 85.99 143 85.35 144 84.72 145 84.1 146 83.51 147 82.92 148 82.36 149 81.81 150 81.28 151 80.77 152 80.28 153 79.8 154 79.35 155 78.92 156 78.51 157 78.12 158 77.75 159 77.4 160 77.08 161 76.77 162 76.5 163 76.24 164 76.01 165 75.8 166 75.61 167 75.45 168 75.32 169 75.2 170 75.12 171 75.05 172 75.01 173 75 174 75.01 175 75.05 176 75.11 177 75.19 178 75.3 179 75.43 180 75.59 181 75.77 182 75.98 183 76.21 184 76.46 185 76.74 186 77.04 187 77.36 188 77.7 189 78.07 190 78.46 191 78.86 192 79.29 193 79.74 194 80.22 195 80.7 196 81.21 197 81.74 198 82.29 199 82.85 200 83.43 200 250 1.42108547e-14 250"></polyline>
        <polyline id="Path" fill="#98CBCE" fill-rule="nonzero" mask="url(#mask-2)" points="1.42108547e-14 100 1 100.79 2 101.57 3 102.35 4 103.13 5 103.91 6 104.68 7 105.45 8 106.22 9 106.97 10 107.73 11 108.47 12 109.2 13 109.93 14 110.64 15 111.35 16 112.04 17 112.73 18 113.4 19 114.05 20 114.69 21 115.32 22 115.94 23 116.53 24 117.11 25 117.68 26 118.22 27 118.75 28 119.26 29 119.75 30 120.23 31 120.68 32 121.11 33 121.52 34 121.91 35 122.28 36 122.62 37 122.94 38 123.24 39 123.52 40 123.78 41 124.01 42 124.21 43 124.4 44 124.56 45 124.69 46 124.8 47 124.89 48 124.95 49 124.99 50 125 51 124.99 52 124.95 53 124.89 54 124.8 55 124.69 56 124.56 57 124.4 58 124.21 59 124.01 60 123.78 61 123.52 62 123.24 63 122.94 64 122.62 65 122.28 66 121.91 67 121.52 68 121.11 69 120.68 70 120.23 71 119.75 72 119.26 73 118.75 74 118.22 75 117.68 76 117.11 77 116.53 78 115.94 79 115.32 80 114.69 81 114.05 82 113.4 83 112.73 84 112.04 85 111.35 86 110.64 87 109.93 88 109.2 89 108.47 90 107.73 91 106.97 92 106.22 93 105.45 94 104.68 95 103.91 96 103.13 97 102.35 98 101.57 99 100.79 100 100 101 99.21 102 98.43 103 97.65 104 96.87 105 96.09 106 95.32 107 94.55 108 93.78 109 93.03 110 92.27 111 91.53 112 90.8 113 90.07 114 89.36 115 88.65 116 87.96 117 87.27 118 86.6 119 85.95 120 85.31 121 84.68 122 84.06 123 83.47 124 82.89 125 82.32 126 81.78 127 81.25 128 80.74 129 80.25 130 79.77 131 79.32 132 78.89 133 78.48 134 78.09 135 77.72 136 77.38 137 77.06 138 76.76 139 76.48 140 76.22 141 75.99 142 75.79 143 75.6 144 75.44 145 75.31 146 75.2 147 75.11 148 75.05 149 75.01 150 75 151 75.01 152 75.05 153 75.11 154 75.2 155 75.31 156 75.44 157 75.6 158 75.79 159 75.99 160 76.22 161 76.48 162 76.76 163 77.06 164 77.38 165 77.72 166 78.09 167 78.48 168 78.89 169 79.32 170 79.77 171 80.25 172 80.74 173 81.25 174 81.78 175 82.32 176 82.89 177 83.47 178 84.06 179 84.68 180 85.31 181 85.95 182 86.6 183 87.27 184 87.96 185 88.65 186 89.36 187 90.07 188 90.8 189 91.53 190 92.27 191 93.03 192 93.78 193 94.55 194 95.32 195 96.09 196 96.87 197 97.65 198 98.43 199 99.21 200 100 200 250 1.42108547e-14 250"></polyline>
    </g>
</svg>